<svg width="24" height="24" viewBox="0 0 24 24" fill="none" xmlns="http://www.w3.org/2000/svg">
<path d="M8.12394 23.9997C5.45606 15.2086 11.0932 11.9988 11.0932 11.9988C10.6988 16.6898 13.3646 20.3444 13.3646 20.3444C14.345 20.0486 16.2164 18.666 16.2164 18.666C16.2164 20.3444 15.2289 23.9976 15.2289 23.9976C15.2289 23.9976 18.6856 21.3248 19.7738 16.8856C20.8605 12.4464 17.7038 7.98964 17.7038 7.98964C17.894 11.1316 16.8311 14.2219 14.7485 16.5828C14.8527 16.4625 14.9401 16.3289 15.0073 16.1842C15.3814 15.4359 15.9821 13.4911 15.6304 8.98756C15.1352 2.66578 9.40718 0 9.40718 0C9.90089 3.85181 8.42045 4.73924 4.95256 12.0505C1.48467 19.3605 8.12394 23.9997 8.12394 23.9997Z" fill="#1F2125"/>
</svg>
