<svg width="24" height="24" viewBox="0 0 24 24" fill="none" xmlns="http://www.w3.org/2000/svg">
<path fill-rule="evenodd" clip-rule="evenodd" d="M15.8926 14.6083L20.7343 19.4501C20.9045 19.6204 21.0001 19.8513 21 20.0921C20.9999 20.3328 20.9042 20.5637 20.7339 20.7339C20.5636 20.9041 20.3327 20.9996 20.0919 20.9996C19.8511 20.9995 19.6203 20.9037 19.4501 20.7334L14.6083 15.8917C13.1609 17.0127 11.3408 17.5403 9.51828 17.367C7.69573 17.1938 6.00764 16.3327 4.79742 14.959C3.5872 13.5853 2.94576 11.8021 3.0036 9.97224C3.06143 8.14238 3.81419 6.40329 5.10874 5.10874C6.40329 3.81419 8.14238 3.06143 9.97224 3.0036C11.8021 2.94576 13.5853 3.5872 14.959 4.79742C16.3327 6.00764 17.1937 7.69573 17.367 9.51828C17.5403 11.3408 17.0127 13.1609 15.8917 14.6083H15.8926ZM10.2003 15.5992C11.6324 15.5992 13.0059 15.0303 14.0185 14.0176C15.0312 13.005 15.6001 11.6315 15.6001 10.1994C15.6001 8.76733 15.0312 7.39389 14.0185 6.38124C13.0059 5.36859 11.6324 4.79969 10.2003 4.79969C8.76823 4.79969 7.39479 5.36859 6.38214 6.38124C5.36949 7.39389 4.80059 8.76733 4.80059 10.1994C4.80059 11.6315 5.36949 13.005 6.38214 14.0176C7.39479 15.0303 8.76823 15.5992 10.2003 15.5992Z" fill="#FF9100"/>
</svg>
