<svg width="24" height="24" viewBox="0 0 24 24" fill="none" xmlns="http://www.w3.org/2000/svg">
<path d="M15.5761 6.38501H8.42305C7.87395 6.38554 7.34749 6.6039 6.95922 6.99218C6.57094 7.38045 6.35258 7.90691 6.35205 8.45601V15.605C6.35258 16.1541 6.57094 16.6806 6.95922 17.0688C7.34749 17.4571 7.87395 17.6755 8.42305 17.676H15.5761C16.1252 17.6755 16.6516 17.4571 17.0399 17.0688C17.4282 16.6806 17.6465 16.1541 17.6471 15.605V8.45601C17.6465 7.90691 17.4282 7.38045 17.0399 6.99218C16.6516 6.6039 16.1252 6.38554 15.5761 6.38501ZM11.9991 15.75C11.2637 15.75 10.5449 15.532 9.93344 15.1234C9.32202 14.7149 8.84547 14.1342 8.56407 13.4548C8.28266 12.7755 8.20903 12.0279 8.35249 11.3067C8.49595 10.5854 8.85006 9.92296 9.37003 9.40299C9.89 8.88302 10.5525 8.52891 11.2737 8.38545C11.9949 8.24199 12.7425 8.31562 13.4219 8.59703C14.1012 8.87843 14.6819 9.35498 15.0905 9.9664C15.499 10.5778 15.7171 11.2967 15.7171 12.032C15.716 13.0178 15.3239 13.9628 14.6269 14.6599C13.9299 15.3569 12.9848 15.749 11.9991 15.75ZM15.837 9.08201C15.663 9.08201 15.4929 9.0304 15.3481 8.9337C15.2034 8.83701 15.0906 8.69957 15.024 8.53877C14.9574 8.37797 14.94 8.20103 14.974 8.03033C15.0079 7.85963 15.0917 7.70283 15.2148 7.57976C15.3379 7.45669 15.4947 7.37287 15.6654 7.33892C15.8361 7.30496 16.013 7.32239 16.1738 7.389C16.3346 7.4556 16.472 7.56839 16.5687 7.71311C16.6654 7.85782 16.7171 8.02796 16.7171 8.20201C16.7171 8.43549 16.6244 8.65943 16.4594 8.82462C16.2944 8.98981 16.0705 9.08274 15.837 9.08301V9.08201Z" fill="#707070"/>
<path d="M12.0039 9.88501C11.5793 9.88501 11.1642 10.0109 10.8111 10.2468C10.4581 10.4828 10.1829 10.8181 10.0204 11.2104C9.85786 11.6027 9.81535 12.0344 9.89819 12.4509C9.98103 12.8673 10.1855 13.2499 10.4858 13.5502C10.786 13.8504 11.1686 14.0549 11.5851 14.1378C12.0016 14.2206 12.4332 14.1781 12.8256 14.0156C13.2179 13.8531 13.5532 13.5779 13.7891 13.2248C14.025 12.8717 14.1509 12.4566 14.1509 12.032C14.1501 11.4628 13.9237 10.9172 13.5212 10.5147C13.1187 10.1123 12.5731 9.8858 12.0039 9.88501Z" fill="#707070"/>
<path d="M12 0C9.62663 0 7.30655 0.703788 5.33316 2.02236C3.35977 3.34094 1.8217 5.21509 0.913451 7.4078C0.00519943 9.60051 -0.232441 12.0133 0.230582 14.3411C0.693605 16.6689 1.83649 18.8071 3.51472 20.4853C5.19295 22.1635 7.33115 23.3064 9.65892 23.7694C11.9867 24.2324 14.3995 23.9948 16.5922 23.0866C18.7849 22.1783 20.6591 20.6402 21.9776 18.6668C23.2962 16.6935 24 14.3734 24 12C24 8.8174 22.7357 5.76515 20.4853 3.51472C18.2348 1.26428 15.1826 0 12 0ZM19.218 15.609C19.2169 16.5746 18.8329 17.5003 18.1501 18.1831C17.4673 18.8659 16.5416 19.2499 15.576 19.251H8.42301C7.45741 19.2499 6.53167 18.8659 5.84889 18.1831C5.16611 17.5003 4.78206 16.5746 4.78101 15.609V8.456C4.78206 7.49041 5.16611 6.56466 5.84889 5.88189C6.53167 5.19911 7.45741 4.81506 8.42301 4.814H15.576C16.5416 4.81506 17.4673 5.19911 18.1501 5.88189C18.8329 6.56466 19.2169 7.49041 19.218 8.456V15.609Z" fill="#707070"/>
</svg>
