<svg width="24" height="25" viewBox="0 0 24 25" fill="none" xmlns="http://www.w3.org/2000/svg">
<path d="M12.0025 24.0031C9.2334 24.005 6.54897 23.0483 4.40475 21.2953C2.26053 19.5423 0.788626 17.101 0.238821 14.3858C-0.310985 11.6705 0.0951834 8.84863 1.3884 6.39893C2.68161 3.94923 4.78219 2.02265 7.33367 0.946145C10.2648 -0.292681 13.5678 -0.315838 16.5159 0.88177C19.4641 2.07938 21.8161 4.39965 23.0543 7.33215C24.2925 10.2646 24.3157 13.5692 23.1186 16.5187C21.9216 19.4683 19.6024 21.8213 16.6713 23.0601C15.1943 23.6855 13.6063 24.0063 12.0025 24.0031ZM5.37559 17.3551C6.6079 18.1452 8.03007 18.5888 9.49282 18.6394C10.9556 18.69 12.405 18.3457 13.6889 17.6427C14.9728 16.9397 16.0439 15.9039 16.7897 14.6439C17.5355 13.384 17.9286 11.9465 17.9277 10.4821C17.9277 10.3591 17.9277 10.2341 17.9197 10.1111C18.4811 9.70605 18.9652 9.20341 19.349 8.62714C18.8256 8.85908 18.2703 9.01111 17.7018 9.07815C18.3008 8.72006 18.7489 8.15587 18.9622 7.49115C18.3999 7.82677 17.7843 8.06353 17.1421 8.19114C16.7098 7.73256 16.1388 7.42903 15.517 7.3274C14.8952 7.22577 14.2572 7.33168 13.7016 7.6288C13.146 7.92592 12.7035 8.39773 12.4425 8.97142C12.1815 9.54511 12.1164 10.1888 12.2574 10.8031C11.1 10.7472 9.96818 10.4426 8.93892 9.91014C7.93901 9.39457 7.05684 8.67713 6.34813 7.80315C5.98157 8.43478 5.86931 9.1824 6.0342 9.89391C6.19908 10.6054 6.62873 11.2273 7.23572 11.6331C6.78018 11.6188 6.33467 11.4957 5.93633 11.2741C5.93633 11.2861 5.93633 11.2981 5.93633 11.3101C5.93746 11.972 6.16679 12.6132 6.58561 13.1254C7.00443 13.6377 7.58709 13.9898 8.23525 14.1221C7.81153 14.2375 7.36705 14.2542 6.93586 14.1711C7.11859 14.7414 7.47517 15.2402 7.95558 15.5974C8.43599 15.9546 9.01612 16.1525 9.6146 16.1631C8.41378 17.1038 6.89039 17.5321 5.37559 17.3551Z" fill="#707070"/>
</svg>
