<svg width="24" height="25" viewBox="0 0 24 25" fill="none" xmlns="http://www.w3.org/2000/svg">
<path d="M12.0025 24.0031C9.2334 24.005 6.54897 23.0483 4.40475 21.2953C2.26053 19.5423 0.788626 17.101 0.238821 14.3858C-0.310985 11.6705 0.0951835 8.84863 1.3884 6.39893C2.68161 3.94923 4.78219 2.02265 7.33367 0.946145C10.2648 -0.292681 13.5678 -0.315838 16.5159 0.88177C19.4641 2.07938 21.8161 4.39965 23.0543 7.33215C24.2925 10.2646 24.3157 13.5692 23.1186 16.5187C21.9216 19.4683 19.6024 21.8213 16.6713 23.0601C15.1943 23.6855 13.6063 24.0063 12.0025 24.0031ZM13.7247 15.2031C14.0495 15.2031 14.4243 15.6321 14.8242 16.0861C15.0895 16.419 15.3932 16.7194 15.7287 16.9811C15.9985 17.1816 16.3225 17.2956 16.6583 17.3081C16.6974 17.3089 16.7366 17.3062 16.7752 17.3001L18.8743 17.2711C18.8793 17.2711 19.394 17.2361 19.5489 16.9401C19.586 16.8401 19.5963 16.7321 19.5787 16.6268C19.5612 16.5216 19.5165 16.4228 19.449 16.3401L19.435 16.3161C19.0035 15.6518 18.4817 15.0507 17.8847 14.5301L17.8477 14.4961C16.7333 13.4611 16.7333 13.4611 17.7938 12.0881C17.9507 11.8881 18.1286 11.6541 18.3305 11.3881C19.2731 10.1311 19.6879 9.31915 19.5639 8.97315C19.487 8.75815 19.1391 8.72614 18.9382 8.72614C18.8715 8.72596 18.8047 8.7293 18.7383 8.73615L16.3704 8.75115C16.3491 8.74986 16.3278 8.74986 16.3065 8.75115C16.2222 8.7487 16.1389 8.76835 16.0646 8.80815C15.9749 8.87407 15.9031 8.96138 15.8557 9.06215C15.6098 9.69843 15.3175 10.3158 14.9811 10.9091C14.6928 11.4293 14.3529 11.9191 13.9666 12.3711C13.7537 12.5991 13.5777 12.7151 13.4428 12.7151C13.4038 12.7154 13.3656 12.7043 13.3329 12.6831C12.997 12.4661 13.013 11.8831 13.027 11.3701C13.027 11.2701 13.032 11.1771 13.032 11.0881C13.032 10.6881 13.046 10.3471 13.058 10.0451C13.098 9.04515 13.117 8.58515 12.5192 8.44515C12.1575 8.35825 11.7855 8.32124 11.4138 8.33514H11.0719C10.523 8.29576 9.97165 8.36369 9.44868 8.53514C9.23578 8.63514 9.04887 8.85815 9.06086 8.94515C9.06206 8.95416 9.06645 8.96245 9.07323 8.96851C9.08002 8.97457 9.08875 8.97799 9.09784 8.97815C9.36716 9.00276 9.61716 9.12853 9.79752 9.33014C9.96048 9.66347 10.0407 10.0312 10.0314 10.4021C10.0314 10.4231 10.0654 10.9281 10.0434 11.4561C10.0224 11.9561 9.94345 12.5691 9.70656 12.7001C9.66019 12.7263 9.60787 12.7401 9.55463 12.7401C9.21979 12.7401 8.75501 12.1881 8.00936 10.8931C7.69052 10.322 7.40906 9.73076 7.16675 9.12315C7.12178 9.02065 7.0533 8.9302 6.96684 8.85915C6.85722 8.78654 6.7342 8.73656 6.60501 8.71214L4.35507 8.72715C4.35507 8.72715 4.01623 8.73815 3.89329 8.88315C3.78434 9.01315 3.88429 9.28314 3.88429 9.28314C3.88429 9.28314 4.33608 10.3331 5.01676 11.6031C5.72717 13.001 6.60962 14.3045 7.64353 15.4831C8.63254 16.5609 10.0087 17.2018 11.4697 17.2651C11.5187 17.2651 11.5467 17.2651 11.5497 17.2651H12.4913C12.6501 17.2469 12.7998 17.1814 12.9211 17.0771C13.0074 16.9566 13.0527 16.8114 13.05 16.6631C13.0509 16.4433 13.0723 16.224 13.114 16.0081C13.1769 15.6991 13.3139 15.3081 13.6137 15.2131C13.6499 15.204 13.6874 15.2006 13.7247 15.2031Z" fill="#707070"/>
</svg>
